<svg xmlns="http://www.w3.org/2000/svg" viewBox="0 0 576 576"><defs><style>.cls-1{fill:#fff;}.cls-2{fill:#f4792a;}</style></defs><title>monogram solid-flame-rgb</title><g id="monogram_solid" data-name="monogram solid"><circle class="cls-1" cx="287.47" cy="288.04" r="234.12"/><path class="cls-2" d="M413.81,215.1c-5.1,0-26.38,0-28.56.36V394.69c2.18.35,23.83.35,26.37.35,23.27,0,34.18-27.27,34.18-97.05C445.8,232.46,432,215.1,413.81,215.1Z"/><path class="cls-2" d="M288,36C149.05,36,36,149.05,36,288S149.05,540,288,540,540,427,540,288,427,36,288,36ZM247.15,188.51c-7.27,0-12,4.61-12,11.69V411.31c0,6.38,4.72,11.34,12,11.34v6.73c-9.45,1.06-48.64,5.69-78.82,5.69-34.18,0-56.35-17.71-68.35-32.24,2.18-6,2.54-11,2.54-20.54V201.64c0-13.36,7.26-20.19,7.26-20.19h48.73v6.73c-6.9,0-12,4.6-12,13.46V378c0,15.23,10.54,20.9,21.81,20.9,12,0,22.18-6.73,22.18-20.9V201.64c0-14.27,5-20,5-20,22.92,0,51.63-.16,51.63-.16Zm5.22,284.92,1.45-6c6.95,0,12.9-4.64,12.9-16.22V155.61H158c-11.26,0-17.55,4.64-20.19,11.26l-7.29-2,10.6-45.35c2.64,1,8.6,1.66,17.54,1.66H420.14c5,0,11.92-.66,14.56-1.66l10.6,45.35-7.29,2c-3.64-7.28-8.27-11.26-19.86-11.26h-109V451.25c0,11.91,5.29,16.22,12.57,16.22l1.45,6Zm153.8-42.26c-30.18,0-67.82-1.06-77.28-2.13v-6.73c7.27,0,12-4.95,12-11.33V199.87c0-7.08-4.73-11.69-12-11.69V181.1c11.64-1.07,50.38-2.48,76.55-2.48,56,0,86.17,29.75,86.17,119.37C491.61,389.73,466.52,431.17,406.17,431.17Z"/></g></svg>